<svg width="134" height="134" viewBox="0 0 134 134" fill="none" xmlns="http://www.w3.org/2000/svg">
<g clip-path="url(#clip0_436_12826)">
<rect x="0.669922" y="0.669983" width="132.66" height="132.66" rx="11.1323" fill="#F4F4F4"/>
<path d="M96.1016 12.64V40.64H94.7816V13.88H87.7416V12.64H96.1016ZM121.849 39.4V40.64H102.889V39.68L114.889 27.6C116.515 25.9733 117.609 24.5867 118.169 23.44C118.755 22.2667 119.049 21.0667 119.049 19.84C119.049 17.9467 118.395 16.4533 117.089 15.36C115.809 14.2667 113.969 13.72 111.569 13.72C109.702 13.72 108.075 14 106.689 14.56C105.329 15.0933 104.155 15.9333 103.169 17.08L102.249 16.2C104.409 13.72 107.529 12.48 111.609 12.48C114.302 12.48 116.435 13.1333 118.009 14.44C119.582 15.7467 120.369 17.52 120.369 19.76C120.369 21.1733 120.049 22.5333 119.409 23.84C118.769 25.1467 117.582 26.6667 115.849 28.4L104.929 39.4H121.849Z" fill="#2B714F"/>
<path d="M85.5649 70.8819H16.9775V139.469H85.5649V70.8819Z" stroke="#2B714F" stroke-miterlimit="10"/>
<path d="M85.5649 70.8819H16.9775V89.0596H85.5649V70.8819Z" stroke="#2B714F" stroke-miterlimit="10"/>
<path d="M55.656 70.8819H46.8633V139.469H55.656V70.8819Z" stroke="#2B714F" stroke-miterlimit="10"/>
<path d="M47.0488 70.8818L73.2061 57.1295C77.9567 54.6322 83.6832 57.9425 83.8923 63.2971C84.0549 67.4437 80.7445 70.8818 76.5979 70.8818H47.0488Z" stroke="#2B714F" stroke-miterlimit="10"/>
<path d="M55.4934 70.8818L29.3361 57.1295C24.5856 54.6322 18.8593 57.9425 18.6503 63.2971C18.4877 67.4437 21.798 70.8818 25.9446 70.8818H55.4934Z" stroke="#2B714F" stroke-miterlimit="10"/>
<path d="M51.246 38.2415L52.6353 42.498C53.0331 43.7168 53.9868 44.6642 55.1993 45.062L59.4558 46.4513L55.1993 47.8407C53.9805 48.2386 53.0331 49.1922 52.6353 50.4047L51.246 54.6612L49.8566 50.4047C49.4588 49.1859 48.5051 48.2386 47.2926 47.8407L43.0361 46.4513L47.2926 45.062C48.5114 44.6642 49.4588 43.7105 49.8566 42.498L51.246 38.2415Z" stroke="#2B714F" stroke-miterlimit="10"/>
</g>
<defs>
<clipPath id="clip0_436_12826">
<rect x="0.669922" y="0.669983" width="132.66" height="132.66" rx="11.1323" fill="white"/>
</clipPath>
</defs>
</svg>
